# xmcd
#
# Track frame offsets:
# 150
# 15669
# 32075
# 49819
# 66732
# 84437
# 98519
# 114408
# 132484
# 148597
# 165289
# 179177
# 194612
# 210762
# 227164
#
# Disc length: 3275 seconds
#
#
# Revision: 0
# Processed by: cddbd v1.5.2PL0 Copyright (c) Steve Scherf et al.
# Submitted via: FreeRIP 2.96 
#
DISCID=d00cc90f
DTITLE=Coração Sertanejo - CD 3 - Coração Sertanejo - CD 3
DYEAR=2010
DGENRE=Country
TTITLE0=Sempre com você - Luan Santana
TTITLE1=Rosas, versos e vinho - Gusttavo Lima
TTITLE2=Fã - Christian and Cristiano
TTITLE3=Primeiro Passo - Maria Cecília and Rodolfo
TTITLE4=Revelação - João Neto and Frederico
TTITLE5=Amanhã sei lá - Michel Teló
TTITLE6=Lumiá (Xote da Lua) - Alan and Alex
TTITLE7=Dois corações e uma história - Zezé Di Camargo and Luciano
TTITLE8=E daí - Carlos and Jader
TTITLE9=Só quem ama - Ronny and Rangel
TTITLE10=Paixão não se deleta - Lucas E Luan
TTITLE11=Pra nunca mais dizer seu nome - Hugo and Tiago
TTITLE12=Ficar não tá com nada - Diego and Diogo
TTITLE13=Melhor pra gente - Fabiano and Bonatto
TTITLE14=Amor de violeiro - Eduardo Costa
EXTD=Ano 2010 - M. P. A.
EXTT0=
EXTT1=
EXTT2=
EXTT3=
EXTT4=
EXTT5=
EXTT6=
EXTT7=
EXTT8=
EXTT9=
EXTT10=
EXTT11=
EXTT12=
EXTT13=
EXTT14=
PLAYORDER=
